<mxfile host="Electron" modified="2023-10-20T21:47:14.626Z" agent="Mozilla/5.0 (Windows NT 10.0; Win64; x64) AppleWebKit/537.36 (KHTML, like Gecko) draw.io/21.7.5 Chrome/114.0.5735.289 Electron/25.8.1 Safari/537.36" etag="No5DBvwOrg08dvt_Rb8Q" version="21.7.5" type="device">
  <diagram name="Страница — 1" id="loo5AhrEf2JEnCuY-RYQ">
    <mxGraphModel dx="1018" dy="772" grid="1" gridSize="10" guides="1" tooltips="1" connect="1" arrows="1" fold="1" page="1" pageScale="1" pageWidth="827" pageHeight="1169" math="0" shadow="0">
      <root>
        <mxCell id="0" />
        <mxCell id="1" parent="0" />
        <mxCell id="irH7_UgQpRdZX40xXywM-10" style="edgeStyle=orthogonalEdgeStyle;rounded=0;orthogonalLoop=1;jettySize=auto;html=1;exitX=0.5;exitY=1.038;exitDx=0;exitDy=0;entryX=0.5;entryY=0;entryDx=0;entryDy=0;exitPerimeter=0;" parent="1" source="irH7_UgQpRdZX40xXywM-3" target="irH7_UgQpRdZX40xXywM-5" edge="1">
          <mxGeometry relative="1" as="geometry" />
        </mxCell>
        <mxCell id="irH7_UgQpRdZX40xXywM-1" value="user" style="swimlane;fontStyle=0;childLayout=stackLayout;horizontal=1;startSize=26;fillColor=none;horizontalStack=0;resizeParent=1;resizeParentMax=0;resizeLast=0;collapsible=1;marginBottom=0;whiteSpace=wrap;html=1;" parent="1" vertex="1">
          <mxGeometry x="115" y="210" width="140" height="78" as="geometry" />
        </mxCell>
        <mxCell id="irH7_UgQpRdZX40xXywM-2" value="username" style="text;strokeColor=none;fillColor=none;align=left;verticalAlign=top;spacingLeft=4;spacingRight=4;overflow=hidden;rotatable=0;points=[[0,0.5],[1,0.5]];portConstraint=eastwest;whiteSpace=wrap;html=1;" parent="irH7_UgQpRdZX40xXywM-1" vertex="1">
          <mxGeometry y="26" width="140" height="26" as="geometry" />
        </mxCell>
        <mxCell id="irH7_UgQpRdZX40xXywM-3" value="password" style="text;strokeColor=none;fillColor=none;align=left;verticalAlign=top;spacingLeft=4;spacingRight=4;overflow=hidden;rotatable=0;points=[[0,0.5],[1,0.5]];portConstraint=eastwest;whiteSpace=wrap;html=1;" parent="irH7_UgQpRdZX40xXywM-1" vertex="1">
          <mxGeometry y="52" width="140" height="26" as="geometry" />
        </mxCell>
        <mxCell id="irH7_UgQpRdZX40xXywM-5" value="SignIn&lt;br&gt;SignUp(unique username)&lt;br&gt;UpdateUser(un username)" style="whiteSpace=wrap;html=1;" parent="1" vertex="1">
          <mxGeometry x="80" y="380" width="210" height="70" as="geometry" />
        </mxCell>
        <mxCell id="irH7_UgQpRdZX40xXywM-6" value="transport" style="swimlane;fontStyle=0;childLayout=stackLayout;horizontal=1;startSize=26;fillColor=none;horizontalStack=0;resizeParent=1;resizeParentMax=0;resizeLast=0;collapsible=1;marginBottom=0;whiteSpace=wrap;html=1;" parent="1" vertex="1">
          <mxGeometry x="610" y="30" width="140" height="190" as="geometry" />
        </mxCell>
        <mxCell id="irH7_UgQpRdZX40xXywM-7" value="&quot;canBeRented&quot;: bool&lt;br&gt;&quot;model&quot;: &quot;string&quot;&lt;br&gt;&quot;color&quot;: &quot;string&quot;&lt;br&gt;&quot;identifier&quot;: &quot;string&quot;&lt;br&gt;&quot;description&quot;: &quot;string&quot;?&lt;br&gt;&quot;latitude&quot;: double&lt;br&gt;&quot;longitude&quot;: double транспорта&lt;br&gt;&quot;minutePrice&quot;: double?&lt;br&gt;&quot;dayPrice&quot;: double?&lt;br&gt;" style="text;strokeColor=none;fillColor=none;align=left;verticalAlign=top;spacingLeft=4;spacingRight=4;overflow=hidden;rotatable=0;points=[[0,0.5],[1,0.5]];portConstraint=eastwest;whiteSpace=wrap;html=1;" parent="irH7_UgQpRdZX40xXywM-6" vertex="1">
          <mxGeometry y="26" width="140" height="164" as="geometry" />
        </mxCell>
        <mxCell id="irH7_UgQpRdZX40xXywM-14" style="edgeStyle=orthogonalEdgeStyle;rounded=0;orthogonalLoop=1;jettySize=auto;html=1;exitX=0.479;exitY=1.011;exitDx=0;exitDy=0;entryX=0.5;entryY=0;entryDx=0;entryDy=0;exitPerimeter=0;" parent="1" source="irH7_UgQpRdZX40xXywM-12" target="irH7_UgQpRdZX40xXywM-13" edge="1">
          <mxGeometry relative="1" as="geometry" />
        </mxCell>
        <mxCell id="irH7_UgQpRdZX40xXywM-11" value="transport" style="swimlane;fontStyle=0;childLayout=stackLayout;horizontal=1;startSize=26;fillColor=none;horizontalStack=0;resizeParent=1;resizeParentMax=0;resizeLast=0;collapsible=1;marginBottom=0;whiteSpace=wrap;html=1;" parent="1" vertex="1">
          <mxGeometry x="430" y="380" width="140" height="120" as="geometry" />
        </mxCell>
        <mxCell id="irH7_UgQpRdZX40xXywM-12" value="lat: double&amp;nbsp;&lt;br&gt;long: double&amp;nbsp;&lt;br&gt;radius: double&lt;br&gt;type: “string”&amp;nbsp; [Car, Bike, Scooter, All]" style="text;strokeColor=none;fillColor=none;align=left;verticalAlign=top;spacingLeft=4;spacingRight=4;overflow=hidden;rotatable=0;points=[[0,0.5],[1,0.5]];portConstraint=eastwest;whiteSpace=wrap;html=1;" parent="irH7_UgQpRdZX40xXywM-11" vertex="1">
          <mxGeometry y="26" width="140" height="94" as="geometry" />
        </mxCell>
        <mxCell id="irH7_UgQpRdZX40xXywM-13" value="GetAwaibleTransport" style="whiteSpace=wrap;html=1;" parent="1" vertex="1">
          <mxGeometry x="395" y="570" width="210" height="30" as="geometry" />
        </mxCell>
        <mxCell id="irH7_UgQpRdZX40xXywM-18" style="edgeStyle=orthogonalEdgeStyle;rounded=0;orthogonalLoop=1;jettySize=auto;html=1;entryX=0.5;entryY=0;entryDx=0;entryDy=0;" parent="1" target="irH7_UgQpRdZX40xXywM-17" edge="1">
          <mxGeometry relative="1" as="geometry">
            <mxPoint x="245" y="743" as="sourcePoint" />
          </mxGeometry>
        </mxCell>
        <mxCell id="irH7_UgQpRdZX40xXywM-15" value="rentype" style="swimlane;fontStyle=0;childLayout=stackLayout;horizontal=1;startSize=26;fillColor=none;horizontalStack=0;resizeParent=1;resizeParentMax=0;resizeLast=0;collapsible=1;marginBottom=0;whiteSpace=wrap;html=1;" parent="1" vertex="1">
          <mxGeometry x="180" y="620" width="140" height="120" as="geometry" />
        </mxCell>
        <mxCell id="irH7_UgQpRdZX40xXywM-16" value="rentType: “string” [Minutes, Days]&amp;nbsp;" style="text;strokeColor=none;fillColor=none;align=left;verticalAlign=top;spacingLeft=4;spacingRight=4;overflow=hidden;rotatable=0;points=[[0,0.5],[1,0.5]];portConstraint=eastwest;whiteSpace=wrap;html=1;" parent="irH7_UgQpRdZX40xXywM-15" vertex="1">
          <mxGeometry y="26" width="140" height="94" as="geometry" />
        </mxCell>
        <mxCell id="irH7_UgQpRdZX40xXywM-17" value="NewRent" style="whiteSpace=wrap;html=1;" parent="1" vertex="1">
          <mxGeometry x="140" y="790" width="210" height="30" as="geometry" />
        </mxCell>
        <mxCell id="irH7_UgQpRdZX40xXywM-19" style="edgeStyle=orthogonalEdgeStyle;rounded=0;orthogonalLoop=1;jettySize=auto;html=1;entryX=0.5;entryY=0;entryDx=0;entryDy=0;" parent="1" target="irH7_UgQpRdZX40xXywM-22" edge="1">
          <mxGeometry relative="1" as="geometry">
            <mxPoint x="519" y="783" as="sourcePoint" />
          </mxGeometry>
        </mxCell>
        <mxCell id="irH7_UgQpRdZX40xXywM-20" value="endposition" style="swimlane;fontStyle=0;childLayout=stackLayout;horizontal=1;startSize=26;fillColor=none;horizontalStack=0;resizeParent=1;resizeParentMax=0;resizeLast=0;collapsible=1;marginBottom=0;whiteSpace=wrap;html=1;" parent="1" vertex="1">
          <mxGeometry x="454" y="660" width="140" height="120" as="geometry" />
        </mxCell>
        <mxCell id="irH7_UgQpRdZX40xXywM-21" value="lat: double&lt;br&gt;long: double" style="text;strokeColor=none;fillColor=none;align=left;verticalAlign=top;spacingLeft=4;spacingRight=4;overflow=hidden;rotatable=0;points=[[0,0.5],[1,0.5]];portConstraint=eastwest;whiteSpace=wrap;html=1;" parent="irH7_UgQpRdZX40xXywM-20" vertex="1">
          <mxGeometry y="26" width="140" height="94" as="geometry" />
        </mxCell>
        <mxCell id="irH7_UgQpRdZX40xXywM-22" value="EndRent" style="whiteSpace=wrap;html=1;" parent="1" vertex="1">
          <mxGeometry x="414" y="830" width="210" height="30" as="geometry" />
        </mxCell>
        <mxCell id="irH7_UgQpRdZX40xXywM-23" style="edgeStyle=orthogonalEdgeStyle;rounded=0;orthogonalLoop=1;jettySize=auto;html=1;entryX=0.5;entryY=0;entryDx=0;entryDy=0;" parent="1" target="irH7_UgQpRdZX40xXywM-26" edge="1">
          <mxGeometry relative="1" as="geometry">
            <mxPoint x="395" y="1033" as="sourcePoint" />
          </mxGeometry>
        </mxCell>
        <mxCell id="irH7_UgQpRdZX40xXywM-24" value="" style="swimlane;fontStyle=0;childLayout=stackLayout;horizontal=1;startSize=26;fillColor=none;horizontalStack=0;resizeParent=1;resizeParentMax=0;resizeLast=0;collapsible=1;marginBottom=0;whiteSpace=wrap;html=1;" parent="1" vertex="1">
          <mxGeometry x="330" y="910" width="140" height="120" as="geometry" />
        </mxCell>
        <mxCell id="irH7_UgQpRdZX40xXywM-25" value="start: int&lt;br&gt;count: int" style="text;strokeColor=none;fillColor=none;align=left;verticalAlign=top;spacingLeft=4;spacingRight=4;overflow=hidden;rotatable=0;points=[[0,0.5],[1,0.5]];portConstraint=eastwest;whiteSpace=wrap;html=1;" parent="irH7_UgQpRdZX40xXywM-24" vertex="1">
          <mxGeometry y="26" width="140" height="94" as="geometry" />
        </mxCell>
        <mxCell id="irH7_UgQpRdZX40xXywM-26" value="Admin GetManyAccounts" style="whiteSpace=wrap;html=1;" parent="1" vertex="1">
          <mxGeometry x="290" y="1080" width="210" height="30" as="geometry" />
        </mxCell>
        <mxCell id="zSZgKJ0002TvrzCv3aNc-1" style="edgeStyle=orthogonalEdgeStyle;rounded=0;orthogonalLoop=1;jettySize=auto;html=1;entryX=0.5;entryY=0;entryDx=0;entryDy=0;" edge="1" parent="1" target="zSZgKJ0002TvrzCv3aNc-4">
          <mxGeometry relative="1" as="geometry">
            <mxPoint x="665" y="1023" as="sourcePoint" />
          </mxGeometry>
        </mxCell>
        <mxCell id="zSZgKJ0002TvrzCv3aNc-2" value="" style="swimlane;fontStyle=0;childLayout=stackLayout;horizontal=1;startSize=26;fillColor=none;horizontalStack=0;resizeParent=1;resizeParentMax=0;resizeLast=0;collapsible=1;marginBottom=0;whiteSpace=wrap;html=1;" vertex="1" parent="1">
          <mxGeometry x="600" y="900" width="140" height="120" as="geometry" />
        </mxCell>
        <mxCell id="zSZgKJ0002TvrzCv3aNc-3" value="&quot;username&quot;: &quot;string&quot;, &quot;password&quot;: &quot;string&quot;,&lt;br&gt;&quot;isAdmin&quot;: bool, &quot;balance&quot;: double&amp;nbsp;&lt;br&gt;}" style="text;strokeColor=none;fillColor=none;align=left;verticalAlign=top;spacingLeft=4;spacingRight=4;overflow=hidden;rotatable=0;points=[[0,0.5],[1,0.5]];portConstraint=eastwest;whiteSpace=wrap;html=1;" vertex="1" parent="zSZgKJ0002TvrzCv3aNc-2">
          <mxGeometry y="26" width="140" height="94" as="geometry" />
        </mxCell>
        <mxCell id="zSZgKJ0002TvrzCv3aNc-4" value="Admin CreateAccount&lt;br&gt;Admin UpdateAccount" style="whiteSpace=wrap;html=1;" vertex="1" parent="1">
          <mxGeometry x="560" y="1070" width="210" height="30" as="geometry" />
        </mxCell>
        <mxCell id="zSZgKJ0002TvrzCv3aNc-5" value="post and put" style="whiteSpace=wrap;html=1;" vertex="1" parent="1">
          <mxGeometry x="620" y="219" width="120" height="60" as="geometry" />
        </mxCell>
      </root>
    </mxGraphModel>
  </diagram>
</mxfile>
